<svg width="10" height="10" viewBox="0 0 10 10" fill="none" xmlns="http://www.w3.org/2000/svg">
<path d="M4.78307 6.70539C4.27685 6.70539 3.77009 6.70539 3.26387 6.70539C2.93657 6.70539 2.91836 6.68348 3.01907 6.37251C3.54939 4.73825 4.0815 3.10434 4.6154 1.47079C4.73057 1.11762 4.72254 1.108 4.34756 1.17693C2.40464 1.53705 1.05954 3.16615 1.10293 5.10728C1.14632 7.04841 2.73355 8.72773 4.6079 8.87093C6.87652 9.04404 8.53392 7.48868 8.8398 5.64853C9.10764 4.0547 8.39946 2.52818 7.00562 1.67704C6.81063 1.55789 6.76402 1.45316 6.86795 1.25654C6.95294 1.101 7.02358 0.938079 7.07901 0.769785C7.15132 0.537362 7.26864 0.538432 7.45398 0.646896C8.56874 1.30409 9.37334 2.2263 9.75742 3.46215C10.6852 6.42755 8.86337 9.38547 5.79712 9.92725C3.09513 10.4081 0.416718 8.44829 0.0492397 5.72494C-0.325738 2.9599 1.47683 0.521867 4.23346 0.0612955C4.85693 -0.039808 5.49437 -0.0156467 6.10835 0.132359C6.44744 0.211436 6.45976 0.233877 6.35208 0.559804C5.85676 2.05586 5.36089 3.55192 4.86449 5.04797C4.74557 5.40702 4.74611 5.40756 5.13233 5.40809C5.58552 5.40809 6.03818 5.40809 6.49136 5.40809C6.87598 5.40809 6.87759 5.40809 6.80313 5.77356C6.75813 5.99048 6.69599 6.20421 6.66385 6.42274C6.63171 6.62845 6.5294 6.70485 6.32316 6.70111C5.80837 6.69256 5.29304 6.69844 4.77825 6.69844L4.78307 6.70539Z" fill="black"/>
</svg>
