<svg width="10" height="10" viewBox="0 0 10 10" fill="none" xmlns="http://www.w3.org/2000/svg">
<g clip-path="url(#clip0_1067_1128)">
<path d="M9.975 1.89958C9.83402 0.878361 8.87084 0.00658674 7.84438 0.00210333C5.97107 -0.00262916 4.09799 0.00210333 2.22019 0.00210333C2.11273 0.00307999 2.00546 0.011402 1.89913 0.0270112C0.882392 0.163257 0.011614 1.12644 0.00613431 2.1529C-0.00357974 4.03095 0.00115244 5.90402 0.00115244 7.77709C0.0022633 7.88454 0.0105846 7.99181 0.0260603 8.09815C0.167039 9.11937 1.13023 9.98566 2.15668 9.99538C3.10567 10.0053 4.05416 9.99538 5.0029 9.99538V10.0004H7.63491C7.78953 10.0029 7.94411 9.99311 8.0972 9.97122C9.11842 9.83497 9.99019 8.87154 9.99443 7.84508C10.0041 5.96728 9.99941 4.09421 9.99941 2.22114C9.99849 2.11353 9.99034 2.0061 9.975 1.89958ZM4.99816 8.15145C4.58416 8.15081 4.17434 8.06864 3.79209 7.90962C3.40985 7.75059 3.06267 7.51784 2.77037 7.22465C2.47808 6.93145 2.2464 6.58355 2.08855 6.20082C1.93071 5.81809 1.8498 5.40801 1.85044 4.99401C1.85107 4.58001 1.93325 4.17018 2.09227 3.78794C2.25129 3.40569 2.48405 3.05851 2.77724 2.76622C3.07044 2.47392 3.41833 2.24224 3.80107 2.0844C4.1838 1.92655 4.59388 1.84564 5.00788 1.84628C6.7447 1.84628 8.15548 3.26204 8.15548 5.00385C8.15529 5.41795 8.07341 5.82794 7.91455 6.21036C7.75569 6.59278 7.52296 6.9401 7.22968 7.23245C6.93641 7.5248 6.58835 7.75643 6.20543 7.91409C5.82252 8.07174 5.41226 8.15232 4.99816 8.1512V8.15145ZM8.27728 2.53224C8.17184 2.53319 8.06725 2.51331 7.96952 2.47372C7.87178 2.43413 7.78283 2.37563 7.70777 2.30157C7.63272 2.22751 7.57303 2.13934 7.53215 2.04215C7.49126 1.94495 7.46997 1.84064 7.46952 1.73519C7.47015 1.52157 7.55462 1.31674 7.70476 1.16479C7.8549 1.01283 8.0587 0.925895 8.2723 0.922697C8.71018 0.917716 9.08479 1.29233 9.08479 1.73519C9.08217 1.94756 8.99591 2.15032 8.84474 2.29949C8.69356 2.44866 8.48966 2.53221 8.27728 2.53199V2.53224Z" fill="black"/>
<path d="M5.00844 2.9551C4.60394 2.95332 4.20801 3.0717 3.87087 3.29522C3.53373 3.51874 3.27055 3.83734 3.1147 4.21062C2.95886 4.5839 2.91736 4.99505 2.99548 5.39195C3.07359 5.78884 3.2678 6.1536 3.55348 6.43998C3.83916 6.72636 4.20345 6.92146 4.60015 7.00055C4.99685 7.07963 5.4081 7.03914 5.78176 6.88421C6.15542 6.72928 6.47466 6.46688 6.69901 6.13029C6.92335 5.79369 7.0427 5.39806 7.04192 4.99356C7.04198 4.45376 6.82792 3.93599 6.4467 3.55383C6.06548 3.17168 5.54823 2.95635 5.00844 2.9551Z" fill="black"/>
</g>
<defs>
<clipPath id="clip0_1067_1128">
<rect width="10" height="9.99975" fill="white"/>
</clipPath>
</defs>
</svg>
