<svg width="9" height="8" viewBox="0 0 9 8" fill="none" xmlns="http://www.w3.org/2000/svg">
<path d="M2.01455 7.48086H0.148661V2.48627H2.01455V7.48086ZM1.0806 1.80497C0.483951 1.80497 0 1.39418 0 0.898224C4.27058e-09 0.660001 0.113849 0.431534 0.316501 0.263084C0.519153 0.0946341 0.794009 0 1.0806 0C1.3672 0 1.64205 0.0946341 1.8447 0.263084C2.04736 0.431534 2.16121 0.660001 2.16121 0.898224C2.16121 1.39418 1.67705 1.80497 1.0806 1.80497ZM8.99799 7.48086H7.13612V5.04953C7.13612 4.47008 7.12205 3.72699 6.166 3.72699C5.19589 3.72699 5.04723 4.35653 5.04723 5.00778V7.48086H3.18335V2.48627H4.9729V3.16758H4.99902C5.24813 2.77516 5.85663 2.36103 6.76446 2.36103C8.65286 2.36103 9 3.39468 9 4.73726V7.48086H8.99799Z" fill="black"/>
</svg>
