<svg width="110" height="70" viewBox="0 0 110 70" fill="none" xmlns="http://www.w3.org/2000/svg">
<g clip-path="url(#clip0_373_102)">
<path d="M103.068 0H0V70H103.068V0Z" fill="white"/>
<path d="M4.91602 29.7583C5.14086 27.0904 5.29468 24.9478 5.37752 23.3303C5.50177 20.943 5.62307 17.6604 5.74141 13.4825C5.85679 9.29275 5.91004 6.48164 5.91004 5.03133V2.86481C9.07555 2.86481 12.034 2.86481 14.7853 2.86481C17.5366 2.86481 20.1785 2.86481 22.7109 2.86481C22.5393 5.89078 22.4565 7.8693 22.4624 8.80036L21.0867 8.73769L19.9418 8.68397H18.8324H15.7261H12.5842L12.4422 13.2766L14.7321 13.3393H17.2792C18.0159 13.3393 19.1431 13.3393 20.6519 13.2766C20.5365 15.7565 20.4832 17.7081 20.4832 19.1137C18.788 19.051 17.5366 19.0152 16.7112 19.0152C15.3267 19.0152 13.8179 19.0152 12.176 19.1137L12.0073 26.2041V29.7135H8.60811L4.91602 29.7583Z" fill="black"/>
<path d="M24.7617 29.7583C25.3534 19.2062 25.6492 11.0862 25.6492 5.39839V2.85587H29.3414H32.7406C32.5542 5.81021 32.3944 8.61235 32.2791 11.2533C32.1371 14.9299 32.0335 18.3676 31.9684 21.5667C31.9063 24.7717 31.8708 27.4933 31.8708 29.7583H28.6313H24.7617Z" fill="black"/>
<path d="M35.8125 29.7583C36.0373 27.0904 36.1912 24.9478 36.274 23.3303C36.3983 20.943 36.5196 17.6604 36.6379 13.4825C36.7533 9.29275 36.8065 6.48164 36.8065 5.03133V2.86481C39.972 2.86481 42.9305 2.86481 45.6818 2.86481C48.4331 2.86481 51.075 2.86481 53.6074 2.86481C53.4417 5.89078 53.3589 7.8693 53.3589 8.80036L51.9832 8.73769H50.8738H49.7733H46.6669H43.5251L43.3831 13.3303L45.6729 13.393H48.229C48.9656 13.393 50.0928 13.393 51.6016 13.3303C51.4862 15.8102 51.433 17.7619 51.433 19.1674C49.7378 19.1047 48.4864 19.0689 47.661 19.0689C46.2764 19.0689 44.7676 19.0689 43.1257 19.1674L42.966 26.2578V28.8988V29.7941H39.5667L35.8125 29.7583Z" fill="black"/>
<path d="M60.3969 29.7583C60.9117 23.3781 61.2253 16.3503 61.3377 8.67502L54.6191 8.88988L54.6901 6.70545C54.6901 5.53267 54.77 4.25246 54.7878 2.85587C57.7817 2.85587 61.2637 2.85587 65.2339 2.85587H69.1302H72.9199H74.9701L74.8814 4.78961C74.837 5.8281 74.8104 6.6786 74.7926 7.359C74.7749 8.03939 74.7926 8.54073 74.7926 8.88988C72.5442 8.7526 70.6804 8.68397 69.2012 8.68397H68.1007C67.9409 10.9997 67.8196 13.1423 67.7368 15.1119C67.6214 17.932 67.5238 20.6714 67.4616 23.3214C67.3995 25.9714 67.364 28.1289 67.364 29.7672H64.018L60.3969 29.7583Z" fill="black"/>
<path d="M81.9186 29.7583C82.0251 28.6959 82.1523 26.8875 82.3003 24.333C82.4482 21.7786 82.5192 19.9881 82.5133 18.9615L75.2888 2.84691C76.8775 2.84691 78.1821 2.84691 79.2206 2.84691C80.259 2.84691 81.3861 2.84691 82.7707 2.84691C83.1967 4.15995 83.7677 5.72664 84.4836 7.547C85.2025 9.33751 85.7971 10.9937 86.2586 12.4261C87.442 9.75827 88.4124 7.66935 89.1697 6.15935C89.9064 4.67323 90.4389 3.56311 90.7495 2.82005C92.0897 2.82005 93.4121 2.82005 94.6103 2.82005H98.1604L91.2288 15.5774C89.8443 18.12 89.1609 19.4539 89.1609 19.5703V19.7672V19.9642V20.1612L89.0543 23.1602C88.9745 25.1477 88.9212 27.3321 88.8768 29.7225C87.3947 29.7225 86.2143 29.7225 85.4332 29.7225C84.6522 29.7225 83.4008 29.7314 81.9186 29.7583Z" fill="black"/>
<path d="M2.83203 33.6079V67.1441H100.238V33.6079H2.83203ZM19.8903 59.9552C19.4502 61.0053 18.7578 61.9283 17.8756 62.641C17.0258 63.3182 16.047 63.8118 15 64.0913C13.921 64.3681 12.8117 64.5064 11.6984 64.5031C9.4189 64.449 7.15165 64.1489 4.93546 63.6079C4.79346 60.8057 4.63371 58.5676 4.43845 56.8845C5.4896 57.4605 6.59958 57.9197 7.74892 58.2542C8.57608 58.4875 9.42865 58.6168 10.2872 58.6392C11.0837 58.6768 11.876 58.504 12.5859 58.1379C12.8576 57.9996 13.0851 57.7868 13.2421 57.5239C13.3991 57.261 13.4793 56.9586 13.4735 56.6517C13.4749 56.4343 13.448 56.2176 13.3936 56.0071C13.3177 55.7642 13.2102 55.5324 13.0741 55.3178C12.8863 55.0139 12.6661 54.7317 12.4173 54.4763L9.30209 51.2534C8.56544 50.5103 8.05955 49.9821 7.77555 49.6508C7.25579 49.0775 6.79765 48.4503 6.40876 47.7798C6.08897 47.219 5.84708 46.6165 5.68987 45.9893C5.53759 45.3684 5.46305 44.7308 5.46798 44.0913C5.47086 43.2902 5.59047 42.4939 5.82299 41.7278C6.06395 40.9597 6.42337 40.2346 6.88802 39.5792C7.39699 38.8789 8.03976 38.2884 8.77845 37.8424C9.55071 37.3637 10.4012 37.0272 11.2902 36.8487C12.1993 36.6686 13.1238 36.5786 14.0504 36.5801C16.1021 36.6047 18.1445 36.863 20.1388 37.35C20.1388 38.2453 20.2098 39.0868 20.2542 39.8389C20.2985 40.5909 20.405 41.9159 20.5648 43.8138C19.6798 43.3766 18.7517 43.0345 17.7957 42.7932C17.0831 42.6199 16.3541 42.5238 15.6213 42.5067C14.8679 42.4804 14.1236 42.6798 13.4823 43.0797C13.2237 43.2176 13.0055 43.4217 12.8497 43.6716C12.6939 43.9214 12.606 44.2082 12.5948 44.5031C12.595 44.7656 12.64 45.026 12.7279 45.273C12.8533 45.5925 13.0204 45.8936 13.225 46.1683C13.5163 46.5594 13.8367 46.9275 14.1835 47.2695C14.5829 47.6723 15.2041 48.2632 16.0562 49.06L17.2455 50.188C17.5916 50.5282 17.9732 50.94 18.3815 51.4235C18.7661 51.8809 19.1218 52.3623 19.4465 52.8648C19.7095 53.2777 19.9381 53.7119 20.1299 54.1629C20.2847 54.5478 20.4035 54.9465 20.4849 55.3536C20.5657 55.7814 20.6044 56.2162 20.6003 56.6517C20.5931 57.7906 20.3513 58.9156 19.8903 59.9552ZM46.0546 52.1128C45.948 55.4073 45.8948 59.3524 45.8948 63.9481L42.2826 63.9033L38.413 63.9481C38.691 60.8147 38.8774 57.174 38.9721 53.026H29.9637L29.6886 63.9481L25.8456 63.9033L22.2955 63.9481L22.9345 53.205L23.2274 45.3626L23.3073 41.8711C23.3073 40.8595 23.3073 39.8926 23.3073 38.9615V37.0636C25.0823 37.0636 26.3426 37.0636 27.2035 37.0636H30.7092C30.4548 40.8296 30.2862 44.16 30.2033 47.0546H39.2029C39.265 45.9803 39.3094 44.521 39.3626 42.6858C39.4159 40.8505 39.4336 39.5882 39.4336 38.9257C39.4336 38.5676 39.4336 37.9499 39.4336 37.0636H43.3476H46.809C46.4184 43.8078 46.167 48.8242 46.0546 52.1128ZM74.9702 56.034C74.3584 57.7934 73.3741 59.3973 72.0857 60.7341C70.8301 62.0246 69.2875 62.9944 67.5859 63.5631C65.8331 64.1594 63.9952 64.4618 62.1454 64.4584C60.3339 64.4538 58.5353 64.1514 56.8202 63.5631C55.1374 62.9886 53.6156 62.0154 52.3826 60.7252C51.1773 59.492 50.2667 57.9979 49.72 56.3563C49.1722 54.6203 48.9055 52.8065 48.9301 50.9848C48.8749 48.3577 49.4504 45.7562 50.6076 43.402C51.7197 41.2384 53.4556 39.4655 55.5866 38.3169C57.8722 37.0858 60.4336 36.4692 63.024 36.5264C64.7544 36.5219 66.4733 36.8093 68.1096 37.3769C69.7256 37.9249 71.1931 38.8443 72.3963 40.0627C73.6021 41.2811 74.5395 42.7423 75.1477 44.3509C75.7738 46.1411 76.0744 48.0305 76.0352 49.9284C76.0404 52.0111 75.6798 54.0782 74.9702 56.034ZM98.4985 39.0242C98.4541 40.0537 98.4275 40.9132 98.4097 41.5935C98.392 42.2739 98.4097 42.7753 98.4097 43.1244C96.043 42.9812 94.0993 42.9096 92.5787 42.9096H91.4249C91.2533 45.2253 91.1261 47.368 91.0432 49.3375C90.919 52.1576 90.8214 54.8881 90.7592 57.547C90.6971 60.2059 90.6616 62.3456 90.6616 63.9928L87.1115 63.9481L83.304 63.9928C83.8543 57.6007 84.1827 50.573 84.2892 42.9096L77.2511 43.1244L77.3399 40.94C77.3842 39.7672 77.4109 38.487 77.4375 37.0904C80.5616 37.0904 84.2093 37.0904 88.3807 37.0904H92.4633H96.4305H98.5872L98.4985 39.0242Z" fill="black"/>
<path d="M65.916 43.4557C64.9602 42.7956 63.826 42.4486 62.6677 42.462C61.4306 42.4535 60.2236 42.8458 59.2241 43.581C58.1651 44.3701 57.3471 45.4434 56.8633 46.6786C56.3075 48.0226 56.0267 49.466 56.0378 50.9221C56.0216 52.2347 56.2754 53.5363 56.7834 54.7449C57.2621 55.8544 58.0638 56.791 59.0821 57.4306C60.0541 58.0598 61.1843 58.3953 62.3393 58.3975C63.5474 58.4053 64.7263 58.0225 65.703 57.3053C66.76 56.5319 67.5711 55.465 68.0372 54.2346C68.5691 52.9187 68.8405 51.5106 68.836 50.0895C68.8546 48.7536 68.6009 47.428 68.0905 46.1952C67.6457 45.0878 66.8899 44.1357 65.916 43.4557Z" fill="black"/>
<path d="M109.999 2.87376C110.015 3.46162 109.857 4.04089 109.544 4.53742C109.232 5.03394 108.78 5.42511 108.246 5.66087C107.711 5.89663 107.12 5.96624 106.546 5.86078C105.973 5.75532 105.443 5.47959 105.026 5.06891C104.609 4.65822 104.322 4.13126 104.204 3.55549C104.085 2.97971 104.14 2.38132 104.36 1.83693C104.581 1.29253 104.957 0.826906 105.442 0.499657C105.926 0.172408 106.496 -0.00156691 107.079 -3.54613e-06C107.459 -0.00712132 107.836 0.0618181 108.188 0.202828C108.541 0.343837 108.863 0.554101 109.134 0.82143C109.406 1.08876 109.622 1.40784 109.771 1.76014C109.919 2.11244 109.997 2.49096 109.999 2.87376ZM104.878 2.87376C104.892 3.30955 105.033 3.73157 105.283 4.08714C105.533 4.44271 105.882 4.7161 106.285 4.87322C106.688 5.03033 107.128 5.06422 107.55 4.97063C107.973 4.87705 108.358 4.66014 108.659 4.34698C108.96 4.03381 109.162 3.63823 109.242 3.20961C109.321 2.781 109.274 2.33831 109.105 1.93677C108.937 1.53523 108.655 1.19263 108.294 0.951683C107.934 0.710741 107.511 0.582134 107.079 0.581907C106.784 0.581752 106.492 0.64147 106.22 0.757499C105.948 0.873528 105.702 1.0435 105.497 1.25731C105.292 1.47112 105.131 1.72442 105.025 2.00211C104.919 2.2798 104.869 2.57622 104.878 2.87376ZM106.653 4.37779H105.996V1.52193C106.357 1.46439 106.723 1.43745 107.088 1.44136C107.432 1.41096 107.778 1.48252 108.082 1.64726C108.17 1.72529 108.241 1.82177 108.288 1.92999C108.336 2.03822 108.359 2.15559 108.357 2.27394C108.346 2.43657 108.282 2.59084 108.174 2.71241C108.066 2.83399 107.922 2.91595 107.763 2.94538C107.906 3.00124 108.03 3.09615 108.123 3.21949C108.215 3.34283 108.272 3.48971 108.286 3.64368C108.315 3.8931 108.387 4.13547 108.499 4.35988H107.78C107.677 4.13767 107.602 3.90298 107.558 3.66159C107.505 3.34825 107.337 3.20501 106.964 3.20501H106.653V4.37779ZM106.653 2.74842H106.919C107.283 2.74842 107.585 2.63204 107.585 2.32765C107.585 2.02326 107.39 1.88899 106.973 1.88899C106.852 1.87485 106.73 1.87485 106.609 1.88899L106.653 2.74842Z" fill="white"/>
</g>
<defs>
<clipPath id="clip0_373_102">
<rect width="110" height="70" fill="white"/>
</clipPath>
</defs>
</svg>
